<?xml version="1.0" encoding="UTF-8" standalone="no"?>
<!-- Created with Inkscape (http://www.inkscape.org/) -->

<svg
   width="40mm"
   height="40mm"
   viewBox="0 0 40 40"
   version="1.1"
   id="svg1"
   xml:space="preserve"
   inkscape:version="1.4.2 (f4327f4, 2025-05-13)"
   sodipodi:docname="drawing.svg"
   xmlns:inkscape="http://www.inkscape.org/namespaces/inkscape"
   xmlns:sodipodi="http://sodipodi.sourceforge.net/DTD/sodipodi-0.dtd"
   xmlns:xlink="http://www.w3.org/1999/xlink"
   xmlns="http://www.w3.org/2000/svg"
   xmlns:svg="http://www.w3.org/2000/svg"><sodipodi:namedview
     id="namedview1"
     pagecolor="#ffffff"
     bordercolor="#000000"
     borderopacity="0.25"
     inkscape:showpageshadow="2"
     inkscape:pageopacity="0.0"
     inkscape:pagecheckerboard="0"
     inkscape:deskcolor="#d1d1d1"
     inkscape:document-units="mm"
     inkscape:zoom="2.0578704"
     inkscape:cx="22.596175"
     inkscape:cy="59.04162"
     inkscape:window-width="2560"
     inkscape:window-height="1351"
     inkscape:window-x="-9"
     inkscape:window-y="-9"
     inkscape:window-maximized="1"
     inkscape:current-layer="layer1" /><defs
     id="defs1"><linearGradient
       id="nodeGradient"
       x1="0"
       y1="0"
       x2="1"
       y2="1"><stop
         offset="0%"
         style="stop-color:#0b1641;stop-opacity:1"
         id="stop1" /><stop
         offset="100%"
         style="stop-color:#0067cc;stop-opacity:1"
         id="stop2" /></linearGradient><linearGradient
       id="lineGradient"
       x1="0"
       y1="0"
       x2="1"
       y2="1"><stop
         offset="0%"
         style="stop-color:#0b1641;stop-opacity:0.3"
         id="stop3" /><stop
         offset="100%"
         style="stop-color:#0067cc;stop-opacity:0.3"
         id="stop4" /></linearGradient><linearGradient
       inkscape:collect="always"
       xlink:href="#lineGradient"
       id="linearGradient1"
       x1="79.292892"
       y1="79.292892"
       x2="120.70711"
       y2="120.70711"
       gradientUnits="userSpaceOnUse" /><linearGradient
       inkscape:collect="always"
       xlink:href="#lineGradient"
       id="linearGradient2"
       x1="119.29289"
       y1="79.292892"
       x2="160.70711"
       y2="120.70711"
       gradientUnits="userSpaceOnUse" /><linearGradient
       inkscape:collect="always"
       xlink:href="#lineGradient"
       id="linearGradient3"
       x1="79.292892"
       y1="119.29289"
       x2="120.70711"
       y2="160.70711"
       gradientUnits="userSpaceOnUse" /><linearGradient
       inkscape:collect="always"
       xlink:href="#lineGradient"
       id="linearGradient4"
       x1="119.29289"
       y1="119.29289"
       x2="160.70711"
       y2="160.70711"
       gradientUnits="userSpaceOnUse" /><linearGradient
       inkscape:collect="always"
       xlink:href="#lineGradient"
       id="linearGradient5"
       x1="12.649111"
       y1="752.62207"
       x2="25.298222"
       y2="765.27118"
       gradientTransform="scale(6.3245553,0.15811388)"
       gradientUnits="userSpaceOnUse" /><linearGradient
       inkscape:collect="always"
       xlink:href="#nodeGradient"
       id="linearGradient6"
       x1="100"
       y1="60"
       x2="140"
       y2="100"
       gradientUnits="userSpaceOnUse" /><linearGradient
       inkscape:collect="always"
       xlink:href="#nodeGradient"
       id="linearGradient7"
       x1="95.5"
       y1="55.5"
       x2="144.5"
       y2="104.5"
       gradientUnits="userSpaceOnUse" /><linearGradient
       inkscape:collect="always"
       xlink:href="#nodeGradient"
       id="linearGradient8"
       x1="64"
       y1="104"
       x2="96"
       y2="136"
       gradientUnits="userSpaceOnUse" /><linearGradient
       inkscape:collect="always"
       xlink:href="#nodeGradient"
       id="linearGradient9"
       x1="59.5"
       y1="99.5"
       x2="100.5"
       y2="140.5"
       gradientUnits="userSpaceOnUse" /><linearGradient
       inkscape:collect="always"
       xlink:href="#nodeGradient"
       id="linearGradient10"
       x1="144"
       y1="104"
       x2="176"
       y2="136"
       gradientUnits="userSpaceOnUse" /><linearGradient
       inkscape:collect="always"
       xlink:href="#nodeGradient"
       id="linearGradient11"
       x1="139.5"
       y1="99.5"
       x2="180.5"
       y2="140.5"
       gradientUnits="userSpaceOnUse" /><linearGradient
       inkscape:collect="always"
       xlink:href="#nodeGradient"
       id="linearGradient12"
       x1="102"
       y1="142"
       x2="138"
       y2="178"
       gradientUnits="userSpaceOnUse" /><linearGradient
       inkscape:collect="always"
       xlink:href="#nodeGradient"
       id="linearGradient13"
       x1="97.5"
       y1="137.5"
       x2="142.5"
       y2="182.5"
       gradientUnits="userSpaceOnUse" /></defs><g
     inkscape:label="Layer 1"
     inkscape:groupmode="layer"
     id="layer1"><path
       style="fill:#1c2157;fill-opacity:1;stroke-width:0.222757"
       d="m 18.932824,24.302206 c -0.415075,-0.111396 -0.709382,-0.393153 -0.709382,-0.679141 0,-0.551361 0.709881,-1.273755 1.748482,-1.779337 0.932369,-0.453858 0.992648,-0.462256 1.556271,-0.216718 l 0.477261,0.207916 -0.319616,0.414 c -0.242555,0.314193 -0.394482,0.436817 -0.630206,0.508642 -0.427971,0.130401 -0.885433,0.447071 -1.019018,0.705375 -0.100543,0.194428 -0.09928,0.23454 0.01278,0.405558 0.06838,0.104384 0.22124,0.226352 0.339661,0.271049 0.309716,0.116905 0.267756,0.170433 -0.175322,0.223643 -0.555599,0.06679 -0.858788,0.05228 -1.280911,-0.06102 z m -2.334113,-0.592895 c -0.931004,-0.488916 -1.202601,-0.79921 -1.202601,-1.374003 0,-1.330864 2.268801,-3.095586 4.955522,-3.854496 l 0.709526,-0.200428 0.534234,0.274565 c 0.843205,0.433358 0.819933,0.356933 0.275966,0.906135 -0.264803,0.267373 -0.522558,0.486114 -0.572779,0.486114 -0.05026,0 -0.369266,0.08722 -0.708985,0.193807 -1.271459,0.398944 -2.365061,1.018094 -3.092979,1.751117 -0.723658,0.728734 -0.885,1.395571 -0.455916,1.884263 0.127,0.144655 0.219072,0.262029 0.204609,0.260831 -0.01444,-7.22e-4 -0.305441,-0.148749 -0.646597,-0.327905 z m -2.409844,-2.297728 c -0.348577,-0.551765 -0.598262,-1.309635 -0.549715,-1.668525 0.232805,-1.721043 3.378786,-3.884665 6.555983,-4.50882 1.269336,-0.249364 1.20203,-0.255826 1.842598,0.176925 l 0.57241,0.386712 -0.382206,0.344781 c -0.541418,0.48841 -0.562077,0.499328 -1.139953,0.602239 -3.444469,0.613345 -6.676204,2.830408 -6.692617,4.591317 -0.0022,0.218091 -0.0036,0.396503 -0.0036,0.396474 0,-4.3e-5 -0.09126,-0.144532 -0.202812,-0.321103 z M 13.38994,17.964877 c -0.0052,-0.306741 0.239204,-1.331241 0.387994,-1.626233 0.392683,-0.778558 1.371404,-1.609351 2.679177,-2.27426 0.768174,-0.390561 0.785533,-0.395363 1.079536,-0.298329 0.485117,0.1601 0.490511,0.169459 0.311009,0.538942 -0.148215,0.305073 -0.219441,0.359323 -0.853785,0.650308 -1.525632,0.699822 -2.983986,1.881843 -3.404984,2.759803 -0.126841,0.264506 -0.197191,0.352832 -0.198947,0.249769 z"
       id="path13" /></g><g
     inkscape:groupmode="layer"
     id="layer2"
     inkscape:label="Layer 2"><g
       style="fill:none"
       id="g1"
       transform="matrix(0.26458333,0,0,0.26458333,-13.75,-13.485416)"><g
         class="connections"
         id="g8"><path
           d="M 120,80 80,120"
           stroke="url(#lineGradient)"
           stroke-width="2"
           id="path4"
           style="stroke:url(#linearGradient1)" /><path
           d="m 120,80 40,40"
           stroke="url(#lineGradient)"
           stroke-width="2"
           id="path5"
           style="stroke:url(#linearGradient2)" /><path
           d="m 80,120 40,40"
           stroke="url(#lineGradient)"
           stroke-width="2"
           id="path6"
           style="stroke:url(#linearGradient3)" /><path
           d="m 160,120 -40,40"
           stroke="url(#lineGradient)"
           stroke-width="2"
           id="path7"
           style="stroke:url(#linearGradient4)" /><path
           d="m 80,120 h 80"
           stroke="url(#lineGradient)"
           stroke-width="2"
           id="path8"
           style="stroke:url(#linearGradient5)" /></g><g
         class="nodes"
         id="g15"><!-- Central Node --><circle
           cx="120"
           cy="80"
           r="20"
           fill="url(#nodeGradient)"
           id="circle8"
           style="fill:url(#linearGradient6)" /><circle
           cx="120"
           cy="80"
           r="24"
           stroke="url(#nodeGradient)"
           stroke-width="1"
           fill="none"
           id="circle9"
           style="stroke:url(#linearGradient7)" /><!-- Left Node --><circle
           cx="80"
           cy="120"
           r="16"
           fill="url(#nodeGradient)"
           id="circle10"
           style="fill:url(#linearGradient8)" /><circle
           cx="80"
           cy="120"
           r="20"
           stroke="url(#nodeGradient)"
           stroke-width="1"
           fill="none"
           id="circle11"
           style="stroke:url(#linearGradient9)" /><!-- Right Node --><circle
           cx="160"
           cy="120"
           r="16"
           fill="url(#nodeGradient)"
           id="circle12"
           style="fill:url(#linearGradient10)" /><circle
           cx="160"
           cy="120"
           r="20"
           stroke="url(#nodeGradient)"
           stroke-width="1"
           fill="none"
           id="circle13"
           style="stroke:url(#linearGradient11)" /><!-- Bottom Node --><circle
           cx="120"
           cy="160"
           r="18"
           fill="url(#nodeGradient)"
           id="circle14"
           style="fill:url(#linearGradient12)" /><circle
           cx="120"
           cy="160"
           r="22"
           stroke="url(#nodeGradient)"
           stroke-width="1"
           fill="none"
           id="circle15"
           style="stroke:url(#linearGradient13)" /></g></g></g><style
     id="style15">
    @keyframes pulse {
      0% { transform: scale(1); opacity: 0.8; }
      50% { transform: scale(1.1); opacity: 1; }
      100% { transform: scale(1); opacity: 0.8; }
    }
    .nodes circle {
      animation: pulse 3s infinite ease-in-out;
    }
    .nodes circle:nth-child(2n) {
      animation-delay: 1s;
    }
    .nodes circle:nth-child(3n) {
      animation-delay: 2s;
    }
  </style></svg>
